<?xml version="1.0" standalone="no"?><!DOCTYPE svg PUBLIC "-//W3C//DTD SVG 1.1//EN" "http://www.w3.org/Graphics/SVG/1.1/DTD/svg11.dtd"><svg t="1767838877147" class="icon" viewBox="0 0 1024 1024" version="1.1" xmlns="http://www.w3.org/2000/svg" p-id="19708" xmlns:xlink="http://www.w3.org/1999/xlink" width="256" height="256"><path d="M512 490.666667c98.133333 0 179.2-81.066667 179.2-179.2C691.2 209.066667 610.133333 128 512 128S332.8 209.066667 332.8 307.2c0 102.4 81.066667 183.466667 179.2 183.466667zM512 170.666667c76.8 0 136.533333 64 136.533333 136.533333s-64 136.533333-136.533333 136.533333S375.466667 384 375.466667 307.2 435.2 170.666667 512 170.666667zM738.133333 533.333333H285.866667c-98.133333 0-179.2 81.066667-179.2 179.2 0 98.133333 81.066667 179.2 179.2 179.2h452.266666c98.133333 0 179.2-81.066667 179.2-179.2 0-98.133333-81.066667-179.2-179.2-179.2z m0 320H285.866667c-76.8 0-136.533333-64-136.533334-136.533333s64-136.533333 136.533334-136.533333h200.533333l-42.666667 145.066666v12.8l51.2 81.066667c4.266667 4.266667 8.533333 8.533333 12.8 8.533333 4.266667 0 8.533333-4.266667 12.8-8.533333l55.466667-81.066667c4.266667-4.266667 4.266667-8.533333 0-12.8l-46.933333-145.066666h204.8c76.8 0 136.533333 64 136.533333 136.533333S814.933333 853.333333 738.133333 853.333333zM512 610.133333l38.4 115.2-38.4 55.466667-34.133333-55.466667 34.133333-115.2z" fill="#626866" p-id="19709"></path></svg>