<?xml version="1.0" standalone="no"?><!DOCTYPE svg PUBLIC "-//W3C//DTD SVG 1.1//EN" "http://www.w3.org/Graphics/SVG/1.1/DTD/svg11.dtd"><svg t="1767838504169" class="icon" viewBox="0 0 1024 1024" version="1.1" xmlns="http://www.w3.org/2000/svg" p-id="15191" width="256" height="256" xmlns:xlink="http://www.w3.org/1999/xlink"><path d="M710.016 704q28-2.016 46.496-24t16.992-51.008-22.496-49.504-50.016-20.512h-3.008q-30.016 0.992-50.496 23.008t-19.008 51.488 20.512 50.496q-32.992 64.992-84.992 114.496t-128.992 89.504q-103.008 55.008-210.016 40-44.992-6.016-78.496-25.504t-54.496-51.488q-32-48-35.008-99.008t24-103.008q16.992-34.016 44.992-64 22.016-24 44-40-11.008-32-18.016-66.016-88 63.008-126.016 147.008-32 71.008-24.992 147.008 7.008 66.016 39.008 114.496t92.992 76.512 132.992 28q44.992 0 79.008-8 123.008-24 216-95.488t148-183.488l0.992-0.992m228.064-160Q864 456.992 758.016 410.496t-231.008-46.496h-22.016q-8-18.016-25.504-28t-38.496-10.016h-2.016q-30.016 0-50.496 22.016t-19.488 51.488 22.496 50.496 50.496 20.992h3.008q20.992-0.992 38.496-12.992t25.504-32h24q148 0 276.992 84.992 98.016 64.992 138.016 166.016 16.992 40.992 16 80.512t-18.016 73.504q-28 52.992-73.504 80t-105.504 27.008q-35.008 0-72.992-8.992-30.016-8-54.016-18.016-40 32.992-59.008 46.016 88 40.992 168 40.992 59.008 0 112.992-20.992 48-19.008 86.016-52 35.008-30.016 52.992-66.016 20-40 23.008-91.008 2.016-56-16.992-111.008-22.016-60.992-68-114.016l-0.992 0.992m-660.992 183.04q0.992 28.992 22.496 49.504t50.496 20.512H352q31.008 0 51.488-22.496t20-52-22.016-50.016-50.496-20.512h-3.008q-6.016 0-10.016 0.992-79.008-134.016-67.008-288.992 8-118.016 76.992-202.016 27.008-34.016 76-54.016 43.008-18.016 84-19.008 63.008-0.992 112 44.992 40 38.016 64.992 100 20 51.008 23.008 92.992l64 19.008q-7.008-100-48.992-176-38.016-68.992-99.008-107.008Q565.92 25.952 501.92 25.952q-58.016 0-111.488 26.496T295.936 126.464 232.928 235.968q-40.992 116.992-23.008 242.016 16 107.008 76 212-4.992 6.016-7.488 16.512t-1.504 20.512z" p-id="15192"></path></svg>