<?xml version="1.0" standalone="no"?><!DOCTYPE svg PUBLIC "-//W3C//DTD SVG 1.1//EN" "http://www.w3.org/Graphics/SVG/1.1/DTD/svg11.dtd"><svg t="1767838738725" class="icon" viewBox="0 0 1024 1024" version="1.1" xmlns="http://www.w3.org/2000/svg" p-id="18340" xmlns:xlink="http://www.w3.org/1999/xlink" width="256" height="256"><path d="M426.666667 568.888889a256 256 0 1 1 0-512 256 256 0 0 1 0 512z m0-455.111111a199.111111 199.111111 0 1 0 0 398.222222 199.111111 199.111111 0 0 0 0-398.222222z" fill="#999999" p-id="18341"></path><path d="M493.340444 575.374222A353.848889 353.848889 0 0 0 426.666667 568.888889c-175.047111 0-308.167111 122.88-308.167111 284.444444H56.888889c0-188.529778 165.546667-341.333333 369.777778-341.333333 48.583111 0 94.890667 8.874667 137.386666 24.632889l-70.712889 38.741333zM768 900.721778a132.664889 132.664889 0 1 1-0.056889-265.386667 132.664889 132.664889 0 0 1 0.056889 265.386667z m0-232.277334a99.555556 99.555556 0 1 0-0.056889 199.054223 99.555556 99.555556 0 0 0 0.056889-199.054223z" fill="#999999" p-id="18342"></path><path d="M953.742222 798.208l-52.451555 5.973333c-12.344889 1.422222-23.267556-5.688889-23.324445-15.985777l-0.227555-37.205334c-0.056889-10.296889 10.695111-17.237333 23.096889-15.701333l52.508444 6.712889a15.530667 15.530667 0 0 1 13.539556 14.961778l0.170666 26.453333a15.018667 15.018667 0 0 1-13.312 14.791111z m-67.242666-100.579556c-7.623111 9.784889-20.138667 12.515556-27.306667 5.290667l-25.998222-26.168889c-7.168-7.224889-4.437333-19.797333 5.290666-27.534222l41.301334-32.711111a15.132444 15.132444 0 0 1 19.797333 0.910222l18.432 18.602667a15.36 15.36 0 0 1 0.910222 19.968l-32.426666 41.642666z m-105.984 269.824h-26.453334a15.473778 15.473778 0 0 1-14.848-13.824l-6.314666-53.987555c-1.536-12.686222 5.518222-23.836444 15.758222-23.836445h37.205333c10.296889 0 17.294222 11.150222 15.815111 23.836445l-6.314666 53.987555a15.530667 15.530667 0 0 1-14.848 13.824z m5.575111-309.304888h-36.238223c-9.955556 0-16.839111-10.865778-15.36-23.210667l6.144-52.565333a15.075556 15.075556 0 0 1 14.506667-13.482667h25.713778c7.111111 0 13.596444 5.802667 14.449778 13.482667l6.200889 52.565333c1.422222 12.344889-5.404444 23.210667-15.416889 23.210667z m-127.601778 260.380444a15.473778 15.473778 0 0 1-20.309333-0.910222l-18.944-19.114667a15.701333 15.701333 0 0 1-0.967112-20.48l33.336889-42.723555c7.850667-10.069333 20.650667-12.913778 28.046223-5.461334l26.624 26.851556c7.395556 7.395556 4.608 20.366222-5.404445 28.273778l-42.382222 33.564444z m20.650667-213.731556c-7.395556 7.509333-20.309333 4.551111-28.273778-5.745777l-33.848889-43.804445a16.213333 16.213333 0 0 1 0.796444-20.878222l18.944-19.399111a15.416889 15.416889 0 0 1 20.48-0.796445l42.894223 34.531556c10.126222 8.135111 12.970667 21.333333 5.632 28.842667l-26.624 27.249777z m-18.830223 43.52l0.284445 38.229334c0.056889 10.524444-11.036444 17.692444-23.722667 16.099555l-53.930667-6.883555a16.042667 16.042667 0 0 1-13.937777-15.36l-0.170667-27.192889a15.416889 15.416889 0 0 1 13.710222-15.132445l53.873778-6.200888c12.686222-1.422222 23.836444 5.859556 23.893333 16.440888z m199.338667 88.177778c7.168-7.338667 19.797333-4.494222 27.534222 5.575111l32.938667 42.666667a15.815111 15.815111 0 0 1-0.739556 20.366222l-18.488889 18.830222a15.018667 15.018667 0 0 1-19.911111 0.796445l-41.813333-33.621333c-9.841778-7.907556-12.629333-20.821333-5.461333-28.103112l25.941333-26.510222z" fill="#999999" p-id="18343"></path></svg>