<?xml version="1.0" standalone="no"?><!DOCTYPE svg PUBLIC "-//W3C//DTD SVG 1.1//EN" "http://www.w3.org/Graphics/SVG/1.1/DTD/svg11.dtd"><svg t="1767685813879" class="icon" viewBox="0 0 1024 1024" version="1.1" xmlns="http://www.w3.org/2000/svg" p-id="8227" xmlns:xlink="http://www.w3.org/1999/xlink" width="200" height="200"><path d="M128 529.066667c0-106.666667 42.666667-209.066667 119.466667-285.866667S426.666667 128 533.333333 128c183.466667 0 341.333333 123.733333 392.533334 294.4 29.866667 123.733333 8.533333 247.466667-106.666667 307.2-81.066667 38.4-145.066667 34.133333-247.466667 0-85.333333-25.6-102.4-29.866667-115.2-8.533333 0 0 0 8.533333 8.533334 34.133333 0 4.266667 4.266667 8.533333 4.266666 12.8 8.533333 34.133333 8.533333 64-12.8 89.6-29.866667 42.666667-106.666667 42.666667-153.6 4.266667A403.2 403.2 0 0 1 128 529.066667z m64 0c0 110.933333 55.466667 213.333333 145.066667 277.333333 25.6 17.066667 59.733333 17.066667 68.266666 8.533333 4.266667-8.533333 8.533333-17.066667 0-34.133333 0-4.266667-4.266667-8.533333-4.266666-12.8-12.8-46.933333-17.066667-64 4.266666-89.6 42.666667-51.2 72.533333-46.933333 187.733334-12.8 85.333333 25.6 140.8 29.866667 200.533333 4.266667 76.8-38.4 93.866667-136.533333 72.533333-234.666667-42.666667-140.8-174.933333-243.2-328.533333-243.2-89.6 0-179.2 34.133333-243.2 98.133333s-102.4 149.333333-102.4 238.933334z m512 102.4c-38.4 0-68.266667-17.066667-89.6-46.933334-17.066667-34.133333-17.066667-72.533333 0-102.4s51.2-51.2 89.6-46.933333c55.466667 0 98.133333 46.933333 98.133333 98.133333s-42.666667 93.866667-98.133333 98.133334z m0-64c12.8 0 25.6-4.266667 34.133333-17.066667 8.533333-12.8 8.533333-25.6 0-38.4-8.533333-12.8-17.066667-17.066667-34.133333-17.066667-21.333333 0-34.133333 17.066667-34.133333 34.133334 0 21.333333 17.066667 38.4 34.133333 38.4z m-388.266667-68.266667c29.866667 0 55.466667 25.6 55.466667 51.2s-25.6 51.2-55.466667 51.2-55.466667-25.6-55.466666-51.2 25.6-51.2 55.466666-51.2z m85.333334-170.666667c29.866667 0 55.466667 25.6 55.466666 51.2s-25.6 55.466667-55.466666 55.466667-55.466667-25.6-55.466667-55.466667 25.6-51.2 55.466667-51.2z m187.733333-68.266666c17.066667 0 38.4 8.533333 46.933333 25.6s8.533333 38.4 0 51.2-25.6 25.6-46.933333 25.6c-29.866667 0-51.2-25.6-51.2-51.2-4.266667-25.6 21.333333-51.2 51.2-51.2z" p-id="8228"></path></svg>